<svg width="265" height="84" viewBox="0 0 265 84" fill="none" xmlns="http://www.w3.org/2000/svg">
<mask id="mask0_1_166" style="mask-type:luminance" maskUnits="userSpaceOnUse" x="0" y="17" width="61" height="67">
<path d="M0 17.8854H61V84H0V17.8854Z" fill="white"/>
</mask>
<g mask="url(#mask0_1_166)">
<path d="M51.1979 73.349V73.3438C31.776 73.3385 21.2448 73.3333 10.4896 73.3281C10.4791 42.2187 10.4896 36.3229 10.4896 30.4323C10.4896 29 10.4896 29 11.875 29C15.1146 29 18.3594 28.9948 21.6041 29C27.6198 29.0052 33.6354 28.9219 39.651 29.0521C44.6198 29.1667 48.25 34.5365 46.7187 39.2604C45.526 42.9375 42.5937 45.0677 38.6719 45.0677C32.2239 45.0729 25.776 45.0625 19.3281 45.0625C18.9219 45.0625 18.5156 45.0938 17.9687 45.1198C18.1927 45.4844 18.2864 45.6719 18.4114 45.8385C23.6823 53.1823 28.9531 60.5313 34.2604 67.8542H47.4739C44.6302 63.8854 41.8385 60 38.9375 55.9531C39.8073 55.8594 40.4427 55.7813 41.0781 55.7188C50.5833 54.8073 58.1041 46.375 57.9219 36.8333C57.7291 26.4948 49.5573 18.2552 39.2187 18.1823C26.4271 18.099 13.6406 18.1719 0.848938 18.1458C0.453106 18.1458 0.182271 18.2031 0.00518799 18.3385V84.1406C16.5521 84.1406 28.2708 84.1406 51.1979 84.1406C54.4114 84.1406 57.8073 84.1406 61.4271 84.1406L53.0989 73.349C52.4583 73.349 51.8229 73.349 51.1979 73.349Z" fill="white"/>
</g>
<mask id="mask1_1_166" style="mask-type:luminance" maskUnits="userSpaceOnUse" x="0" y="0" width="61" height="12">
<path d="M0 0H61V11.2188H0V0Z" fill="white"/>
</mask>
<g mask="url(#mask1_1_166)">
<path d="M51.1979 10.7969C51.8229 10.7969 52.4583 10.7969 53.0989 10.7969L61.4271 0C57.8125 0 54.4114 0 51.1979 0C28.2708 0 16.5521 0 0.00518799 0V10.8177C15.5052 10.8125 25.6771 10.8125 51.1979 10.8021V10.7969Z" fill="white"/>
</g>
<path d="M84.3013 27.5724H75.6555L81.9055 10.3432H98.0305C100.03 10.3432 101.458 10.7547 102.322 11.5724C103.181 12.3797 103.306 13.6349 102.697 15.3432L101.76 17.8224C101.687 18.0203 101.598 18.1974 101.489 18.3641C101.374 18.5203 101.223 18.6922 101.03 18.8849L99.0721 20.4474C98.7492 20.7286 98.4471 20.9161 98.1555 21.0099C97.8638 21.1089 97.5617 21.1557 97.2596 21.1557H96.1763L99.343 27.4057L99.2805 27.5724H89.9263L87.0513 19.9891L84.3013 27.5724ZM89.0305 14.4891L87.6346 18.3849H91.2596C91.6346 18.3849 91.9992 18.2547 92.3638 17.9891C92.7232 17.7286 92.968 17.4266 93.093 17.0932L93.5305 15.7807C93.6659 15.4214 93.6555 15.1141 93.4888 14.8641C93.3221 14.6141 93.0617 14.4891 92.718 14.4891H89.0305Z" fill="white"/>
<path d="M109.819 25.3849C109.636 25.8432 109.329 26.1766 108.902 26.3849L107.006 27.3641C106.767 27.5047 106.511 27.5724 106.235 27.5724H100.86L106.319 12.5307C106.496 12.0724 106.798 11.7391 107.215 11.5307L109.131 10.5516C109.35 10.4161 109.6 10.3432 109.881 10.3432H115.256L109.819 25.3849Z" fill="white"/>
<path d="M117.427 27.5724C117.161 27.5724 116.927 27.5464 116.718 27.4891C116.52 27.4214 116.354 27.3172 116.218 27.1766L113.885 25.2599C113.645 25.0411 113.51 24.7547 113.468 24.4057C113.427 24.062 113.468 23.7078 113.593 23.3432L116.51 15.3432C117.119 13.6349 118.145 12.3797 119.593 11.5724C121.052 10.7547 122.765 10.3432 124.739 10.3432H135.302C135.562 10.3432 135.802 10.3745 136.01 10.4266C136.229 10.4839 136.406 10.588 136.531 10.7391L138.906 12.5932C139.114 12.8172 139.244 13.1036 139.302 13.4474C139.369 13.7964 139.333 14.1714 139.197 14.5724L136.281 22.5724C135.833 23.812 135.161 24.812 134.26 25.5724C133.369 26.338 132.312 26.8797 131.093 27.1974L133.302 29.8849L133.135 30.2807H125.218L123.26 27.5724H117.427ZM122.281 22.1141C122.156 22.4786 122.177 22.7807 122.343 23.0307C122.51 23.2807 122.781 23.4057 123.156 23.4057H126.385C126.729 23.4057 127.078 23.2807 127.427 23.0307C127.77 22.7807 128.01 22.4786 128.135 22.1141L130.427 15.7807C130.562 15.4214 130.552 15.1141 130.385 14.8641C130.218 14.6141 129.953 14.4891 129.593 14.4891H126.364C126 14.4891 125.645 14.6141 125.302 14.8641C124.968 15.1141 124.724 15.4214 124.572 15.7807L122.281 22.1141Z" fill="white"/>
<path d="M158.249 10.3432H166.561L162.145 22.5516C161.962 23.0099 161.718 23.3953 161.415 23.6974C161.108 23.9891 160.79 24.2339 160.457 24.4266L155.561 27.1766C155.322 27.3172 155.087 27.4214 154.853 27.4891C154.613 27.5464 154.374 27.5724 154.124 27.5724H140.27C139.353 27.5724 138.686 27.2547 138.27 26.6141C137.853 25.963 137.811 25.1766 138.145 24.2599L143.207 10.3432H151.478L147.186 22.1141C147.061 22.4786 147.072 22.7807 147.228 23.0307C147.395 23.2807 147.665 23.4057 148.04 23.4057H152.207C152.566 23.4057 152.915 23.2807 153.249 23.0307C153.593 22.7807 153.832 22.4786 153.957 22.1141L158.249 10.3432Z" fill="white"/>
<path d="M176.646 14.4891L175.751 17.0099H186.355L184.938 20.9057H174.313L173.855 22.1141C173.74 22.4786 173.771 22.7807 173.938 23.0307C174.115 23.2807 174.396 23.4057 174.771 23.4057H185.146L183.626 27.5724H168.271C167.73 27.5724 167.334 27.4422 167.084 27.1766L164.73 25.2599C164.49 25.0411 164.355 24.7547 164.313 24.4057C164.271 24.062 164.313 23.7078 164.438 23.3432L169.146 10.3432H189.876L188.376 14.4891H176.646Z" fill="white"/>
<path d="M201.384 10.3432L197.113 22.1141C196.988 22.4786 197.009 22.7807 197.176 23.0307C197.353 23.2807 197.634 23.4057 198.009 23.4057H205.613L204.093 27.5724H191.509C191.27 27.5724 191.051 27.5464 190.843 27.4891C190.634 27.4214 190.457 27.3172 190.322 27.1766L187.968 25.2599C187.744 25.0411 187.603 24.7547 187.551 24.4057C187.509 24.062 187.551 23.7078 187.676 23.3432L192.384 10.3432H201.384Z" fill="white"/>
<path d="M219.266 27.5724H217.162L217.328 17.9682L216.182 21.8016L214.099 27.5724H206.12L212.37 10.3432H220.828L220.62 20.9266L228.12 10.3432H236.578L230.328 27.5724H222.328L224.432 21.8016L226.12 17.9682L219.266 27.5724Z" fill="white"/>
<path d="M246.656 14.4891L245.76 17.0099H256.365L254.948 20.9057H244.323L243.865 22.1141C243.75 22.4786 243.781 22.7807 243.948 23.0307C244.125 23.2807 244.406 23.4057 244.781 23.4057H255.156L253.635 27.5724H238.281C237.74 27.5724 237.344 27.4422 237.094 27.1766L234.74 25.2599C234.5 25.0411 234.365 24.7547 234.323 24.4057C234.281 24.062 234.323 23.7078 234.448 23.3432L239.156 10.3432H259.885L258.385 14.4891H246.656Z" fill="white"/>
<path d="M83.4026 79.1339H82.2568L77.5693 71.9464H77.5276C77.538 72.1287 77.5536 72.3422 77.5693 72.5922C77.5797 72.8422 77.5953 73.1078 77.6109 73.3839C77.6214 73.6495 77.6318 73.9255 77.6318 74.2172V79.1339H76.6943V70.5714H77.8401L82.4859 77.738H82.5276C82.5276 77.6026 82.5172 77.4047 82.5068 77.1547C82.4911 76.9047 82.4755 76.6339 82.4651 76.3422C82.4651 76.0505 82.4651 75.7797 82.4651 75.5297V70.5714H83.4026V79.1339Z" fill="white"/>
<path d="M92.2086 70.5714V76.113C92.2086 76.712 92.0836 77.2537 91.8336 77.738C91.594 78.212 91.2295 78.587 90.7295 78.863C90.2399 79.1287 89.6305 79.2589 88.8961 79.2589C87.8388 79.2589 87.0315 78.9776 86.4795 78.4047C85.9222 77.8214 85.6461 77.0505 85.6461 76.0922V70.5714H86.6461V76.113C86.6461 76.837 86.8388 77.3995 87.2295 77.8005C87.6149 78.1912 88.193 78.3839 88.9586 78.3839C89.469 78.3839 89.8961 78.2953 90.2295 78.113C90.5628 77.9203 90.8128 77.6547 90.9795 77.3214C91.1461 76.9776 91.2295 76.5714 91.2295 76.113V70.5714H92.2086Z" fill="white"/>
<path d="M97.1233 79.1339H96.1025V71.4464H93.415V70.5714H99.79V71.4464H97.1233V79.1339Z" fill="white"/>
<path d="M103.399 70.5714C104.108 70.5714 104.691 70.6651 105.149 70.8422C105.608 71.0089 105.946 71.2745 106.17 71.6339C106.405 71.9828 106.524 72.436 106.524 72.988C106.524 73.436 106.441 73.811 106.274 74.113C106.108 74.4203 105.889 74.6703 105.629 74.863C105.363 75.0453 105.076 75.186 104.774 75.2797L107.129 79.1339H105.962L103.879 75.5505H102.087V79.1339H101.087V70.5714H103.399ZM103.358 71.4255H102.087V74.7172H103.441C104.149 74.7172 104.66 74.5818 104.983 74.3005C105.316 74.0089 105.483 73.587 105.483 73.0297C105.483 72.4464 105.306 72.0401 104.962 71.8005C104.613 71.5505 104.076 71.4255 103.358 71.4255Z" fill="white"/>
<path d="M108.493 79.1339V70.5714H109.493V79.1339H108.493Z" fill="white"/>
<path d="M115.511 71.3214C115.037 71.3214 114.615 71.4047 114.24 71.5714C113.865 71.7276 113.543 71.962 113.282 72.2797C113.017 72.587 112.813 72.9568 112.678 73.3839C112.537 73.8162 112.47 74.3005 112.47 74.8422C112.47 75.5662 112.579 76.1912 112.803 76.7172C113.022 77.2485 113.355 77.6547 113.803 77.9464C114.246 78.238 114.808 78.3839 115.49 78.3839C115.865 78.3839 116.22 78.3526 116.553 78.2797C116.897 78.212 117.23 78.1287 117.553 78.0297V78.9047C117.23 79.0193 116.897 79.1026 116.553 79.1547C116.22 79.2224 115.813 79.2589 115.345 79.2589C114.47 79.2589 113.74 79.0818 113.157 78.7172C112.574 78.3578 112.136 77.8526 111.845 77.1964C111.553 76.5297 111.407 75.7485 111.407 74.8422C111.407 74.1912 111.496 73.6026 111.678 73.0714C111.855 72.5297 112.121 72.0662 112.47 71.6755C112.829 71.2901 113.261 70.988 113.761 70.7797C114.272 70.561 114.865 70.4464 115.532 70.4464C115.959 70.4464 116.376 70.488 116.782 70.5714C117.183 70.6547 117.543 70.7797 117.865 70.9464L117.47 71.7797C117.188 71.6547 116.886 71.5505 116.553 71.4672C116.23 71.3735 115.886 71.3214 115.511 71.3214ZM116.303 80.8005C116.303 81.186 116.157 81.488 115.865 81.6964C115.574 81.9047 115.142 82.0089 114.574 82.0089C114.449 82.0089 114.329 81.9985 114.22 81.988C114.121 81.9724 114.037 81.9568 113.97 81.9464V81.3422C114.037 81.3526 114.126 81.3683 114.24 81.3839C114.365 81.3943 114.49 81.4047 114.615 81.4047C114.907 81.4047 115.126 81.3526 115.282 81.2589C115.433 81.1755 115.511 81.0349 115.511 80.8422C115.511 80.6183 115.407 80.4568 115.199 80.363C114.99 80.2641 114.725 80.2016 114.407 80.1755L114.928 79.1339H115.574L115.261 79.8005C115.454 79.8266 115.626 79.8839 115.782 79.9672C115.949 80.0505 116.074 80.1599 116.157 80.3005C116.251 80.436 116.303 80.6026 116.303 80.8005Z" fill="white"/>
<path d="M124.778 79.1339L123.737 76.4047H120.299L119.237 79.1339H118.237L121.591 70.5297H122.487L125.82 79.1339H124.778ZM123.424 75.5297L122.424 72.8214C122.393 72.7537 122.351 72.6443 122.299 72.488C122.257 72.3214 122.205 72.1547 122.153 71.988C122.096 71.811 122.049 71.6703 122.007 71.5714C121.976 71.7276 121.935 71.8839 121.882 72.0505C121.841 72.2068 121.799 72.3526 121.757 72.488C121.716 72.6287 121.679 72.738 121.653 72.8214L120.632 75.5297H123.424ZM119.82 69.6964C119.846 69.462 119.888 69.2537 119.945 69.0714C120.013 68.8943 120.101 68.738 120.216 68.613C120.325 68.4776 120.455 68.3735 120.612 68.3005C120.763 68.2328 120.929 68.1964 121.112 68.1964C121.289 68.1964 121.466 68.238 121.632 68.3214C121.799 68.3943 121.95 68.4776 122.091 68.5714C122.242 68.6547 122.388 68.7328 122.528 68.8005C122.664 68.8735 122.799 68.9047 122.924 68.9047C123.117 68.9047 123.263 68.8526 123.362 68.738C123.471 68.6287 123.549 68.4464 123.591 68.1964H124.174C124.117 68.6547 123.976 69.0245 123.757 69.3005C123.549 69.5662 123.257 69.6964 122.882 69.6964C122.716 69.6964 122.549 69.6651 122.382 69.5922C122.226 69.5089 122.075 69.4255 121.924 69.3422C121.768 69.2485 121.622 69.1651 121.487 69.0922C121.346 69.0245 121.205 68.988 121.07 68.988C120.872 68.988 120.726 69.0453 120.632 69.1547C120.533 69.2693 120.455 69.4464 120.403 69.6964H119.82Z" fill="white"/>
<path d="M134.429 74.8422C134.429 75.4985 134.345 76.0922 134.179 76.6339C134.012 77.1755 133.762 77.6443 133.429 78.0297C133.095 78.4203 132.684 78.7276 132.199 78.9464C131.71 79.1547 131.142 79.2589 130.491 79.2589C129.835 79.2589 129.262 79.1547 128.762 78.9464C128.262 78.7276 127.851 78.4203 127.533 78.0297C127.21 77.6443 126.97 77.1755 126.804 76.6339C126.637 76.0922 126.554 75.488 126.554 74.8214C126.554 73.9464 126.699 73.186 126.991 72.5297C127.283 71.863 127.72 71.3526 128.304 70.988C128.887 70.613 129.621 70.4255 130.512 70.4255C131.356 70.4255 132.074 70.613 132.658 70.988C133.241 71.3526 133.679 71.8578 133.97 72.5089C134.272 73.1651 134.429 73.9412 134.429 74.8422ZM127.616 74.8422C127.616 75.5662 127.71 76.1964 127.908 76.738C128.116 77.2693 128.434 77.6755 128.866 77.9672C129.293 78.2485 129.835 78.3839 130.491 78.3839C131.158 78.3839 131.699 78.2485 132.116 77.9672C132.543 77.6755 132.866 77.2693 133.074 76.738C133.283 76.1964 133.387 75.5662 133.387 74.8422C133.387 73.7328 133.147 72.8735 132.679 72.2589C132.22 71.6339 131.496 71.3214 130.512 71.3214C129.845 71.3214 129.293 71.4672 128.866 71.7589C128.449 72.0401 128.137 72.4412 127.929 72.9672C127.72 73.4828 127.616 74.1078 127.616 74.8422Z" fill="white"/>
<path d="M144.213 79.1339H139.442V70.5714H144.213V71.4464H140.442V74.2172H144.005V75.0922H140.442V78.2589H144.213V79.1339Z" fill="white"/>
<path d="M150.944 76.863C150.944 77.363 150.819 77.7953 150.569 78.1547C150.319 78.5193 149.964 78.7953 149.506 78.988C149.058 79.1651 148.532 79.2589 147.923 79.2589C147.589 79.2589 147.277 79.238 146.985 79.1964C146.704 79.1651 146.444 79.1287 146.194 79.0714C145.954 79.0193 145.746 78.9412 145.569 78.8422V77.9047C145.86 78.0193 146.214 78.1287 146.631 78.238C147.048 78.337 147.491 78.3839 147.964 78.3839C148.392 78.3839 148.756 78.3318 149.048 78.2172C149.339 78.1078 149.558 77.9412 149.714 77.7172C149.866 77.4985 149.944 77.238 149.944 76.9464C149.944 76.6443 149.881 76.3943 149.756 76.1964C149.631 76.0037 149.412 75.8318 149.11 75.6755C148.819 75.5089 148.412 75.3318 147.902 75.1339C147.537 75.0089 147.22 74.8735 146.944 74.7172C146.662 74.5662 146.428 74.3943 146.235 74.1964C146.053 74.0037 145.912 73.7797 145.819 73.5297C145.72 73.2693 145.673 72.9672 145.673 72.6339C145.673 72.1755 145.782 71.7901 146.006 71.4672C146.241 71.1339 146.569 70.8839 146.985 70.7172C147.402 70.5401 147.871 70.4464 148.402 70.4464C148.86 70.4464 149.282 70.488 149.673 70.5714C150.058 70.6547 150.412 70.7745 150.735 70.9255L150.444 71.7797C150.121 71.6443 149.787 71.5297 149.444 71.4464C149.11 71.363 148.756 71.3214 148.381 71.3214C148.017 71.3214 147.704 71.3787 147.444 71.488C147.194 71.6026 146.996 71.7537 146.86 71.9464C146.735 72.1443 146.673 72.3735 146.673 72.6339C146.673 72.9412 146.735 73.1912 146.86 73.3839C146.996 73.5818 147.204 73.7589 147.485 73.9255C147.761 74.0818 148.131 74.238 148.589 74.4047C149.089 74.587 149.511 74.7797 149.86 74.988C150.22 75.186 150.491 75.436 150.673 75.738C150.85 76.0297 150.944 76.4047 150.944 76.863Z" fill="white"/>
<path d="M154.94 70.5714C156.034 70.5714 156.841 70.7901 157.357 71.2172C157.867 71.6495 158.128 72.2693 158.128 73.0714C158.128 73.436 158.065 73.7797 157.94 74.113C157.826 74.436 157.633 74.7172 157.357 74.9672C157.091 75.2172 156.742 75.4151 156.315 75.5505C155.883 75.6912 155.357 75.7589 154.732 75.7589H153.69V79.1339H152.69V70.5714H154.94ZM154.836 71.4255H153.69V74.9047H154.628C155.17 74.9047 155.617 74.8526 155.982 74.738C156.357 74.613 156.633 74.4203 156.815 74.1547C156.992 73.8943 157.086 73.5453 157.086 73.113C157.086 72.5453 156.904 72.1235 156.545 71.8422C156.18 71.5662 155.612 71.4255 154.836 71.4255Z" fill="white"/>
<path d="M167.347 74.8422C167.347 75.4985 167.263 76.0922 167.097 76.6339C166.93 77.1755 166.68 77.6443 166.347 78.0297C166.013 78.4203 165.602 78.7276 165.117 78.9464C164.628 79.1547 164.06 79.2589 163.409 79.2589C162.753 79.2589 162.18 79.1547 161.68 78.9464C161.18 78.7276 160.768 78.4203 160.451 78.0297C160.128 77.6443 159.888 77.1755 159.722 76.6339C159.555 76.0922 159.472 75.488 159.472 74.8214C159.472 73.9464 159.617 73.186 159.909 72.5297C160.201 71.863 160.638 71.3526 161.222 70.988C161.805 70.613 162.539 70.4255 163.43 70.4255C164.274 70.4255 164.992 70.613 165.576 70.988C166.159 71.3526 166.597 71.8578 166.888 72.5089C167.19 73.1651 167.347 73.9412 167.347 74.8422ZM160.534 74.8422C160.534 75.5662 160.628 76.1964 160.826 76.738C161.034 77.2693 161.352 77.6755 161.784 77.9672C162.211 78.2485 162.753 78.3839 163.409 78.3839C164.076 78.3839 164.617 78.2485 165.034 77.9672C165.461 77.6755 165.784 77.2693 165.992 76.738C166.201 76.1964 166.305 75.5662 166.305 74.8422C166.305 73.7328 166.065 72.8735 165.597 72.2589C165.138 71.6339 164.414 71.3214 163.43 71.3214C162.763 71.3214 162.211 71.4672 161.784 71.7589C161.367 72.0401 161.055 72.4412 160.847 72.9672C160.638 73.4828 160.534 74.1078 160.534 74.8422Z" fill="white"/>
<path d="M171.556 70.5714C172.264 70.5714 172.847 70.6651 173.306 70.8422C173.764 71.0089 174.102 71.2745 174.326 71.6339C174.561 71.9828 174.681 72.436 174.681 72.988C174.681 73.436 174.597 73.811 174.431 74.113C174.264 74.4203 174.045 74.6703 173.785 74.863C173.519 75.0453 173.233 75.186 172.931 75.2797L175.285 79.1339H174.118L172.035 75.5505H170.243V79.1339H169.243V70.5714H171.556ZM171.514 71.4255H170.243V74.7172H171.597C172.306 74.7172 172.816 74.5818 173.139 74.3005C173.472 74.0089 173.639 73.587 173.639 73.0297C173.639 72.4464 173.462 72.0401 173.118 71.8005C172.769 71.5505 172.233 71.4255 171.514 71.4255Z" fill="white"/>
<path d="M179.295 79.1339H178.274V71.4464H175.587V70.5714H181.962V71.4464H179.295V79.1339Z" fill="white"/>
<path d="M183.259 79.1339V70.5714H184.259V79.1339H183.259Z" fill="white"/>
<path d="M192.589 70.5714L189.527 79.1339H188.527L185.444 70.5714H186.485L188.485 76.2172C188.569 76.4412 188.636 76.6547 188.694 76.863C188.761 77.0714 188.824 77.2745 188.881 77.4672C188.933 77.6495 188.985 77.8318 189.027 78.0089C189.053 77.8318 189.095 77.6443 189.152 77.4464C189.204 77.2537 189.261 77.0505 189.319 76.8422C189.386 76.6339 189.464 76.4203 189.548 76.1964L191.548 70.5714H192.589Z" fill="white"/>
<path d="M199.14 79.1339L198.098 76.4047H194.66L193.598 79.1339H192.598L195.952 70.5297H196.848L200.181 79.1339H199.14ZM197.785 75.5297L196.785 72.8214C196.754 72.7537 196.712 72.6443 196.66 72.488C196.619 72.3214 196.567 72.1547 196.515 71.988C196.457 71.8109 196.41 71.6703 196.369 71.5714C196.337 71.7276 196.296 71.8839 196.244 72.0505C196.202 72.2068 196.16 72.3526 196.119 72.488C196.077 72.6287 196.041 72.738 196.015 72.8214L194.994 75.5297H197.785Z" fill="white"/>
<path d="M209.24 79.1339H204.47V70.5714H209.24V71.4464H205.47V74.2172H209.032V75.0922H205.47V78.2589H209.24V79.1339Z" fill="white"/>
<path d="M219.026 79.1339H214.255V70.5714H219.026V71.4464H215.255V74.2172H218.817V75.0922H215.255V78.2589H219.026V79.1339Z" fill="white"/>
<path d="M225.756 76.863C225.756 77.363 225.631 77.7953 225.381 78.1547C225.131 78.5193 224.777 78.7953 224.319 78.988C223.871 79.1651 223.345 79.2589 222.735 79.2589C222.402 79.2589 222.089 79.238 221.798 79.1964C221.517 79.1651 221.256 79.1287 221.006 79.0714C220.767 79.0193 220.558 78.9412 220.381 78.8422V77.9047C220.673 78.0193 221.027 78.1287 221.444 78.238C221.86 78.337 222.303 78.3839 222.777 78.3839C223.204 78.3839 223.569 78.3318 223.86 78.2172C224.152 78.1078 224.371 77.9412 224.527 77.7172C224.678 77.4985 224.756 77.238 224.756 76.9464C224.756 76.6443 224.694 76.3943 224.569 76.1964C224.444 76.0037 224.225 75.8318 223.923 75.6755C223.631 75.5089 223.225 75.3318 222.714 75.1339C222.35 75.0089 222.032 74.8735 221.756 74.7172C221.475 74.5662 221.24 74.3943 221.048 74.1964C220.865 74.0037 220.725 73.7797 220.631 73.5297C220.532 73.2693 220.485 72.9672 220.485 72.6339C220.485 72.1755 220.595 71.7901 220.819 71.4672C221.053 71.1339 221.381 70.8839 221.798 70.7172C222.214 70.5401 222.683 70.4464 223.214 70.4464C223.673 70.4464 224.095 70.488 224.485 70.5714C224.871 70.6547 225.225 70.7745 225.548 70.9255L225.256 71.7797C224.933 71.6443 224.6 71.5297 224.256 71.4464C223.923 71.363 223.569 71.3214 223.194 71.3214C222.829 71.3214 222.517 71.3787 222.256 71.488C222.006 71.6026 221.808 71.7537 221.673 71.9464C221.548 72.1443 221.485 72.3735 221.485 72.6339C221.485 72.9412 221.548 73.1912 221.673 73.3839C221.808 73.5818 222.017 73.7589 222.298 73.9255C222.574 74.0818 222.944 74.238 223.402 74.4047C223.902 74.587 224.324 74.7797 224.673 74.988C225.032 75.186 225.303 75.436 225.485 75.738C225.662 76.0297 225.756 76.4047 225.756 76.863Z" fill="white"/>
<path d="M230.149 79.1339H229.128V71.4464H226.44V70.5714H232.815V71.4464H230.149V79.1339Z" fill="white"/>
<path d="M238.883 79.1339H234.112V70.5714H238.883V71.4464H235.112V74.2172H238.675V75.0922H235.112V78.2589H238.883V79.1339ZM238.321 67.8005V67.9047C238.237 68.0193 238.123 68.1547 237.987 68.3214C237.862 68.4776 237.716 68.6443 237.55 68.8214C237.383 68.988 237.216 69.1547 237.05 69.3214C236.883 69.4776 236.727 69.6078 236.591 69.7172H235.946V69.5714C236.071 69.436 236.201 69.2589 236.341 69.0505C236.492 68.8318 236.638 68.613 236.779 68.4047C236.93 68.186 237.05 67.9828 237.133 67.8005H238.321Z" fill="white"/>
<path d="M243.426 79.1339H242.405V71.4464H239.718V70.5714H246.093V71.4464H243.426V79.1339Z" fill="white"/>
<path d="M247.39 79.1339V70.5714H248.39V79.1339H247.39Z" fill="white"/>
<path d="M254.408 71.3214C253.934 71.3214 253.512 71.4047 253.137 71.5714C252.762 71.7276 252.439 71.962 252.179 72.2797C251.913 72.587 251.71 72.9568 251.574 73.3839C251.434 73.8162 251.366 74.3005 251.366 74.8422C251.366 75.5662 251.476 76.1912 251.699 76.7172C251.918 77.2485 252.252 77.6547 252.699 77.9464C253.142 78.238 253.705 78.3839 254.387 78.3839C254.762 78.3839 255.116 78.3526 255.449 78.2797C255.793 78.212 256.127 78.1287 256.449 78.0297V78.9047C256.127 79.0193 255.793 79.1026 255.449 79.1547C255.116 79.2224 254.71 79.2589 254.241 79.2589C253.366 79.2589 252.637 79.0818 252.054 78.7172C251.47 78.3578 251.033 77.8526 250.741 77.1964C250.449 76.5297 250.304 75.7485 250.304 74.8422C250.304 74.1912 250.392 73.6026 250.574 73.0714C250.752 72.5297 251.017 72.0662 251.366 71.6755C251.726 71.2901 252.158 70.988 252.658 70.7797C253.168 70.561 253.762 70.4464 254.429 70.4464C254.856 70.4464 255.272 70.488 255.679 70.5714C256.08 70.6547 256.439 70.7797 256.762 70.9464L256.366 71.7797C256.085 71.6547 255.783 71.5505 255.449 71.4672C255.127 71.3735 254.783 71.3214 254.408 71.3214Z" fill="white"/>
<path d="M263.675 79.1339L262.633 76.4047H259.196L258.133 79.1339H257.133L260.487 70.5297H261.383L264.716 79.1339H263.675ZM262.321 75.5297L261.321 72.8214C261.289 72.7537 261.248 72.6443 261.196 72.488C261.154 72.3214 261.102 72.1547 261.05 71.988C260.992 71.8109 260.946 71.6703 260.904 71.5714C260.873 71.7276 260.831 71.8839 260.779 72.0505C260.737 72.2068 260.696 72.3526 260.654 72.488C260.612 72.6287 260.576 72.738 260.55 72.8214L259.529 75.5297H262.321Z" fill="white"/>
<path d="M76.7596 33.0469H93.8221V36.2344H80.5304V44.4011H90.4471V47.5469H80.5304V55.7552H93.8221V58.9011H76.7596V33.0469Z" fill="white"/>
<path d="M97.6839 33.0469H101.455L110.663 53.2136L119.871 33.0469H123.642V58.9011H119.996V40.5261L111.601 58.9011H109.746L101.309 40.5261V58.9011H97.6839V33.0469Z" fill="white"/>
<path d="M137.101 33.0469H140.726L151.038 58.9011H147.205L144.601 52.4636H133.184L130.663 58.9011H126.788L137.101 33.0469ZM143.58 49.3177L138.913 37.2344L134.247 49.3177H143.58Z" fill="white"/>
<path d="M155.096 33.0469H158.7L171.846 52.5469V33.0469H175.659V58.9011H172.034L158.867 39.4219V58.9011H155.096V33.0469Z" fill="white"/>
<path d="M190.957 59.4636C187.441 59.4636 184.779 58.5625 182.977 56.7552C181.17 54.9375 180.269 52.4375 180.269 49.2552V33.0469H184.061V49.4011C184.061 51.599 184.67 53.2552 185.894 54.3802C187.128 55.4948 188.816 56.0469 190.957 56.0469C193.082 56.0469 194.759 55.4948 195.998 54.3802C197.233 53.2552 197.852 51.599 197.852 49.4011V33.0469H201.623V49.2552C201.623 52.4115 200.717 54.9011 198.915 56.7344C197.123 58.5573 194.467 59.4636 190.957 59.4636Z" fill="white"/>
<path d="M206.224 33.0469H223.286V36.2344H209.995V44.4011H219.911V47.5469H209.995V55.7552H223.286V58.9011H206.224V33.0469Z" fill="white"/>
<path d="M227.148 33.0469H230.919V55.7552H244.023V58.9011H227.148V33.0469Z" fill="white"/>
</svg>
